<svg height="512" viewBox="0 0 128 128" width="512" xmlns="http://www.w3.org/2000/svg"><g id="Circle_Grid" data-name="Circle Grid"><circle cx="64" cy="64" fill="#3b5059" r="64"/></g><g id="icon"><path d="m96.061 39.693c0 6.944-6.575 15.547-15.205 20.555-8.268-4.885-15.212-13.548-15.212-20.555a7.932 7.932 0 0 1 15.212-3.141 7.927 7.927 0 0 1 15.205 3.141z" fill="#ef5261"/><path d="m104.629 62.892c-1.7 1.414-9.32 7.727-17.73 14.052a7.2 7.2 0 0 1 -3.3 1.378c-5.06.739-19.789 2.782-33.063 3.561a3.276 3.276 0 0 0 -2.382 1.236l-2.1 2.659-11.636-14.029 6.325-3.575a6.308 6.308 0 0 0 2.046-1.856c1.454-2.057 5.546-6.438 14.449-7.356 0 0 4.169-.749 12.968 2.108a37.543 37.543 0 0 0 6.2 1.45c1.072.162 2.1.264 3.067.311a.9.9 0 0 1 .222.036 1.122 1.122 0 0 1 .8 1.474l-.144.389a4.932 4.932 0 0 1 -4.8 3.258 55.428 55.428 0 0 1 -10.644-1.2 1.129 1.129 0 0 0 -1.426.958c-.06.821.419 1.749 2.863 1.863 3.875.174 14.112.024 16.67-.018a2.647 2.647 0 0 0 1.114-.264l16.688-7.871a2.984 2.984 0 0 1 3.067.311l.731.551a.36.36 0 0 1 .015.574z" fill="#fed19a"/><path d="m23.586 75.988 8.914-7.719a1 1 0 0 1 1.418.11l15.546 18.362a1 1 0 0 1 -.127 1.418l-9.528 7.847a1 1 0 0 1 -1.414-.144l-14.932-18.49a1 1 0 0 1 .123-1.384z" fill="#828a9e"/><circle cx="31.483" cy="76.422" fill="#eeefee" r="2.262"/></g></svg>