<svg height="512" viewBox="0 0 128 128" width="512" xmlns="http://www.w3.org/2000/svg"><g id="Circle_Grid" data-name="Circle Grid"><circle cx="64" cy="64" fill="#2cbfae" r="64"/></g><g id="icon"><path d="m24 43.01h80a0 0 0 0 1 0 0v52.86a2.319 2.319 0 0 1 -2.319 2.319h-75.362a2.319 2.319 0 0 1 -2.319-2.32v-52.859a0 0 0 0 1 0 0z" fill="#eeefee"/><path d="m26.319 32.43h75.362a2.319 2.319 0 0 1 2.319 2.319v11.451a0 0 0 0 1 0 0h-80a0 0 0 0 1 0 0v-11.451a2.319 2.319 0 0 1 2.319-2.319z" fill="#ef5261"/><g fill="#575b6d"><rect height="13.237" rx="2.338" width="4.677" x="90.387" y="25.812"/><rect height="13.237" rx="2.338" width="4.677" x="71.237" y="25.812"/><rect height="13.237" rx="2.338" width="4.677" x="52.086" y="25.812"/><rect height="13.237" rx="2.338" width="4.677" x="32.936" y="25.812"/></g><path d="m80.707 65.257c0 7.628-7.223 17.079-16.7 22.58-9.083-5.367-16.711-14.885-16.711-22.58a8.713 8.713 0 0 1 16.704-3.451 8.708 8.708 0 0 1 16.7 3.451z" fill="#ef5261"/></g></svg>