<svg height="512" viewBox="0 0 128 128" width="512" xmlns="http://www.w3.org/2000/svg"><g id="Circle_Grid" data-name="Circle Grid"><circle cx="64" cy="64" fill="#69b0ee" r="64"/></g><g id="icon"><path d="m37.6 93.264-4.822 3.291v-65.208a7.347 7.347 0 0 1 7.343-7.347h53.879a1.225 1.225 0 0 1 1.225 1.225v65.207z" fill="#575b6d"/><path d="m94.491 103.278c.233.245.478.49.735.722h-55.668a6.784 6.784 0 1 1 0-13.568h55.668a12.506 12.506 0 0 0 -1.874 2.045c-2.498 3.539-1.922 7.523 1.139 10.801z" fill="#dbd8dd"/><path d="m94.957 104h-55.4a6.735 6.735 0 0 1 -4.557-1.763 6.573 6.573 0 0 1 -.7-2.976 6.773 6.773 0 0 1 6.784-6.784h52.269c-2.5 3.539-1.922 7.519 1.139 10.8a6.555 6.555 0 0 0 .465.723z" fill="#eeefee"/><path d="m45.121 24h2.347v66.432h-2.347z" fill="#414451"/><g fill="#f6c863"><path d="m68.362 33.796h5.97v32.451h-5.97z"/><path d="m68.362 32.342h5.97v24.338h-5.97z" transform="matrix(0 1 -1 0 115.859 -26.836)"/></g></g></svg>