<svg height="512" viewBox="0 0 128 128" width="512" xmlns="http://www.w3.org/2000/svg"><g id="Circle_Grid" data-name="Circle Grid"><circle cx="64" cy="64" fill="#f6c863" r="64"/></g><g id="icon"><path d="m30.036 35.678h11.281a1.257 1.257 0 0 1 1.257 1.257v5a0 0 0 0 1 0 0h-13.8a0 0 0 0 1 0 0v-5a1.257 1.257 0 0 1 1.262-1.257z" fill="#575b6d"/><path d="m105 36.667v54.666a2.063 2.063 0 0 1 -2.063 2.063h-77.874a2.063 2.063 0 0 1 -2.063-2.063v-48.306a2.063 2.063 0 0 1 2.063-2.063h22.47a2.063 2.063 0 0 0 1.364-.515l6.051-5.331a2.063 2.063 0 0 1 1.364-.515h46.626a2.063 2.063 0 0 1 2.062 2.064z" fill="#9a9eaf"/><rect fill="#575b6d" height="4.964" rx=".862" width="7.905" x="55.338" y="40.211"/><rect fill="#eeefee" height="6.265" rx="1.087" width="9.977" x="89.086" y="39.56"/><path d="m23 50.092h82v35.037h-82z" fill="#62667c"/><circle cx="74.211" cy="67.61" fill="#eeefee" r="22.16"/><path d="m91.731 67.612a17.535 17.535 0 1 1 -17.52-17.519 17.54 17.54 0 0 1 17.52 17.519z" fill="#575b6d"/><path d="m86.465 67.612a17.552 17.552 0 0 1 -14.884 17.323 17.522 17.522 0 0 1 0-34.646 17.552 17.552 0 0 1 14.884 17.323z" fill="#62667c"/><path d="m74.211 77.393a9.783 9.783 0 1 1 9.783-9.783 9.794 9.794 0 0 1 -9.783 9.783z" fill="#414451"/><circle cx="77.45" cy="64" fill="#eeefee" r="2.192"/><rect fill="#9a9eaf" height="2.407" rx="1.203" width="14.784" x="29.574" y="57.124"/><rect fill="#9a9eaf" height="2.407" rx="1.203" width="14.784" x="29.574" y="62.797"/><circle cx="33.356" cy="76.56" fill="#ef5261" r="1.837"/><circle cx="40.576" cy="76.56" fill="#2cbfae" r="1.837"/></g></svg>