<svg height="512" viewBox="0 0 128 128" width="512" xmlns="http://www.w3.org/2000/svg"><g id="Circle_Grid" data-name="Circle Grid"><circle cx="64" cy="64" fill="#ea8953" r="64"/></g><g id="icon"><path d="m84.094 66.937h4.769v16.538h-4.769z" fill="#474b59" transform="matrix(1 -.003 .003 1 -.205 .237)"/><path d="m103.118 92.727-15.03-9.264-.045-16.53 14.99-9.368z" fill="#575b6d"/><g fill="#474b59"><path d="m103.028 56a1.883 1.883 0 0 0 -1.878 1.888l.083 34.526a1.883 1.883 0 1 0 3.767-.014l-.083-34.526a1.883 1.883 0 0 0 -1.889-1.874z"/><path d="m40.169 51.794h26.576v1.84h-26.576z" transform="matrix(1 -.003 .003 1 -.144 .146)"/><path d="m42.386 27.393 25.751 4.601-.976 1.478-24.605-4.172"/><circle cx="40.534" cy="40.474" r="9.201" transform="matrix(1 -.003 .003 1 -.11 .111)"/></g><path d="m40.505 27.265a13.2 13.2 0 1 0 13.239 13.166 13.2 13.2 0 0 0 -13.239-13.166zm.067 24.564a11.355 11.355 0 1 1 11.317-11.393 11.365 11.365 0 0 1 -11.316 11.393z" fill="#dbd8dd"/><path d="m40.51 29.121a11.354 11.354 0 1 0 11.378 11.315 11.357 11.357 0 0 0 -11.378-11.315zm-.012.85a3.21 3.21 0 0 1 3.224 3.193c0 1.771-1.433 4.3-3.2 4.3s-3.208-2.513-3.213-4.283a3.207 3.207 0 0 1 3.191-3.21zm-7.257 13.729a3.209 3.209 0 0 1 -.018-6.417c1.771 0 4.3 1.433 4.3 3.19s-2.511 3.227-4.282 3.227zm7.315 7.275a3.207 3.207 0 0 1 -3.21-3.193c0-1.771 1.433-4.31 3.19-4.315s3.223 2.527 3.227 4.3a3.21 3.21 0 0 1 -3.207 3.211zm7.29-7.315c-1.771 0-4.31-1.433-4.315-3.2s2.527-3.208 4.3-3.213a3.209 3.209 0 0 1 .018 6.417z" fill="#eeefee"/><circle cx="40.534" cy="40.474" fill="#474b59" r="1.852" transform="matrix(1 -.003 .003 1 -.11 .111)"/><circle cx="67.181" cy="42.78" fill="#474b59" r="7.388" transform="matrix(1 -.003 .003 1 -.117 .184)"/><path d="m67.157 31.951a10.823 10.823 0 1 0 10.853 10.794 10.819 10.819 0 0 0 -10.853-10.794zm.055 20.137a9.308 9.308 0 1 1 9.277-9.34 9.317 9.317 0 0 1 -9.277 9.34z" fill="#dbd8dd"/><path d="m67.161 33.473a9.307 9.307 0 1 0 9.327 9.276 9.31 9.31 0 0 0 -9.327-9.276zm-.01.7a2.632 2.632 0 0 1 2.643 2.617c0 1.452-1.175 3.522-2.626 3.526s-2.63-2.06-2.634-3.511a2.629 2.629 0 0 1 2.618-2.636zm-5.951 11.254a2.63 2.63 0 0 1 -.014-5.26c1.452 0 3.522 1.175 3.526 2.615s-2.058 2.641-3.512 2.645zm6 5.964a2.629 2.629 0 0 1 -2.632-2.617c0-1.452 1.175-3.533 2.615-3.537s2.642 2.071 2.646 3.523a2.632 2.632 0 0 1 -2.629 2.631zm5.976-6c-1.452 0-3.533-1.175-3.537-2.626s2.071-2.63 3.523-2.634a2.63 2.63 0 0 1 .014 5.26z" fill="#eeefee"/><circle cx="67.181" cy="42.78" fill="#474b59" r="1.518" transform="matrix(1 -.003 .003 1 -.117 .184)"/><rect fill="#575b6d" height="43.027" rx="3.386" transform="matrix(1 -.003 .003 1 -.205 .148)" width="61.957" x="23.049" y="53.633"/><circle cx="78.162" cy="60.24" fill="#2cbfae" r="2.579" transform="matrix(1 -.003 .003 1 -.164 .214)"/><circle cx="71.072" cy="60.26" fill="#ef5261" r="2.579" transform="matrix(1 -.003 .003 1 -.164 .194)"/><path d="m29.181 59.73h24.648v15.234h-24.648z" fill="#474b59"/><rect fill="#474b59" height="3" rx="1.5" width="38.875" x="39.942" y="86.947"/></g></svg>