<svg height="512" viewBox="0 0 128 128" width="512" xmlns="http://www.w3.org/2000/svg"><g id="Circle_Grid" data-name="Circle Grid"><circle cx="64" cy="64" fill="#ef5261" r="64"/></g><g id="icon"><path d="m64 42.57c-.76 0-1.52.03-2.27.08a31.218 31.218 0 0 0 0 62.27c.75.05 1.51.08 2.27.08a31.215 31.215 0 0 0 0-62.43zm0 7.26a23.955 23.955 0 0 1 0 47.91c-.77 0-1.53-.04-2.27-.11a23.953 23.953 0 0 1 0-47.69c.74-.07 1.5-.11 2.27-.11z" fill="#eab54e"/><path d="m61.73 42.65a31.218 31.218 0 0 0 0 62.27 31.217 31.217 0 0 0 0-62.27zm2.27 55.09c-.77 0-1.53-.04-2.27-.11-.75.07-1.5.11-2.27.11a23.955 23.955 0 0 1 0-47.91c.77 0 1.52.04 2.27.11.74-.07 1.5-.11 2.27-.11a23.955 23.955 0 0 1 0 47.91z" fill="#f6c863"/><path d="m64.009 23-6.225 8.451-2.868-8.451z" fill="#e1e0e2"/><path d="m57.784 31.451h-9.904l7.036-8.451z" fill="#eeefee"/><path d="m80.12 31.451h-9.885l2.848-8.451z" fill="#eeefee"/><path d="m80.12 31.451-16.111 18.432 6.226-18.432z" fill="#dbd8dd"/><path d="m64.009 49.883-16.129-18.432h9.904z" fill="#dbd8dd"/><path d="m73.083 23-2.848 8.451h-.019l-6.207-8.451z" fill="#e1e0e2"/><path d="m70.235 31.451-6.226 18.432-6.225-18.432z" fill="#eeefee"/><path d="m70.216 31.451h-12.432l6.225-8.451z" fill="#dbd8dd"/></g></svg>