<svg height="512" viewBox="0 0 128 128" width="512" xmlns="http://www.w3.org/2000/svg"><g id="Circle_Grid" data-name="Circle Grid"><circle cx="64" cy="64" fill="#3b5059" r="64"/></g><g id="icon"><path d="m97.805 55.221v-20.328a4.734 4.734 0 0 0 -4.74-4.729h-58.131a4.734 4.734 0 0 0 -4.74 4.729v20.328z" fill="#f6b863"/><path d="m102.458 70.794-2.878-10.262-1.731-7.166a3.834 3.834 0 0 0 -3.758-2.984h-59.93a3.829 3.829 0 0 0 -3.738 2.984l-1.731 7.166-2.892 10.262z" fill="#eeefee"/><path d="m102.458 70.794-2.878-10.262h-70.889l-2.894 10.262z" fill="#ef5261"/><path d="m102.636 85.18v11.409a1.249 1.249 0 0 1 -1.25 1.247h-3.9a1.25 1.25 0 0 1 -1.159-.781l-2.242-5.555h-60.17l-2.245 5.556a1.25 1.25 0 0 1 -1.159.781h-3.9a1.249 1.249 0 0 1 -1.25-1.247v-11.427z" fill="#eaa14e"/><path d="m102.249 68.89h-76.5a2.748 2.748 0 0 0 -2.749 2.745v13.065a2.748 2.748 0 0 0 2.751 2.745h76.5a2.748 2.748 0 0 0 2.749-2.745v-13.065a2.748 2.748 0 0 0 -2.751-2.745z" fill="#f6b863"/><g fill="#ef5261"><path d="m56.729 46.163a2.006 2.006 0 0 0 -2.009-2h-14.806a2.006 2.006 0 0 0 -2.009 2v.189c4.147.367 11.992 1.677 18.823 6.244z"/><path d="m37.906 46.352v6.519a2.006 2.006 0 0 0 2.009 2h14.805a2.006 2.006 0 0 0 2.009-2v-.271c-6.829-4.571-14.676-5.881-18.823-6.248z"/><path d="m90.094 46.163a2.006 2.006 0 0 0 -2.009-2h-14.805a2.006 2.006 0 0 0 -2.009 2v.189c4.147.367 11.992 1.677 18.823 6.244z"/><path d="m71.271 46.352v6.519a2.006 2.006 0 0 0 2.009 2h14.806a2.006 2.006 0 0 0 2.009-2v-.271c-6.832-4.571-14.677-5.881-18.824-6.248z"/></g></g></svg>