<svg height="512" viewBox="0 0 128 128" width="512" xmlns="http://www.w3.org/2000/svg"><g id="Circle_Grid" data-name="Circle Grid"><circle cx="64" cy="64" fill="#3b5059" r="64"/></g><g id="icon"><path d="m70.133 76.658 33.867 22.9h-80l33.833-22.883-33.833-21.2v-.033l39.983-35 40.017 35z" fill="#eab54e"/><path d="m31.5 28.125h65v56.433h-65z" fill="#eeefee"/><path d="m104 55.442v44.116l-33.867-22.9z" fill="#f6c863"/><path d="m57.833 76.675-33.833 22.883v-44.083z" fill="#f6c863"/><path d="m104 99.558h-80l33.833-22.883.008-.006c7.021 0 5.271-.007 12.292-.011z" fill="#eab54e"/><path d="m77.888 47.168c0 6.341-6 14.2-13.885 18.77-7.551-4.461-13.892-12.373-13.892-18.77a7.243 7.243 0 0 1 13.889-2.868 7.239 7.239 0 0 1 13.885 2.869z" fill="#ef5261"/></g></svg>