<svg height="512" viewBox="0 0 128 128" width="512" xmlns="http://www.w3.org/2000/svg"><g id="Circle_Grid" data-name="Circle Grid"><circle cx="64" cy="64" fill="#2cbfae" r="64"/></g><g id="icon"><path d="m61.658 58.352h4.413v3.573h-4.413z" fill="#414451"/><path d="m61.658 71.514h4.413v3.573h-4.413z" fill="#414451"/><rect fill="#62667c" height="22.904" rx="2.538" width="33.464" x="65.241" y="55.268"/><path d="m69.772 59.703h24.416v14.035h-24.416z" fill="#575b6d"/><path d="m62.3 45.755h-29.309v56.011a3.234 3.234 0 0 0 3.234 3.234h22.842a3.234 3.234 0 0 0 3.234-3.234z" fill="#62667c"/><circle cx="47.646" cy="41.352" fill="#575b6d" r="18.352"/><circle cx="47.646" cy="41.352" fill="#62667c" r="15.946"/><circle cx="47.646" cy="41.352" fill="#dbd8dd" r="14.179"/><circle cx="47.646" cy="41.352" fill="#69b0ee" r="9.267"/><circle cx="42.545" cy="34.848" fill="#fff" r="3.264"/><circle cx="47.646" cy="73.063" fill="#2cbfae" r="2.044"/><circle cx="47.646" cy="65.59" fill="#ef5261" r="2.044"/><g fill="#4f5363"><rect height="2.135" rx="1.068" width="20.571" x="37.36" y="79.386"/><rect height="2.135" rx="1.068" width="20.571" x="37.36" y="85.259"/><rect height="2.135" rx="1.068" width="20.571" x="37.36" y="91.131"/><rect height="2.135" rx="1.068" width="20.571" x="37.36" y="97.004"/></g></g></svg>