<svg height="512" viewBox="0 0 128 128" width="512" xmlns="http://www.w3.org/2000/svg"><g id="Circle_Grid" data-name="Circle Grid"><circle cx="64" cy="64" fill="#69b0ee" r="64"/></g><g id="icon"><path d="m30.613 23h66.774v82h-66.774z" fill="#4d5160"/><path d="m41.176 44.824h45.647v46.989h-45.647z" fill="#686d82" transform="matrix(0 1 -1 0 132.319 4.319)"/><path d="m40.505 23h46.989v18.75h-46.989z" fill="#686d82"/><path d="m40.505 95.419h46.989v9.581h-46.989z" fill="#686d82"/><g fill="#dbd8dd"><path d="m90.15 26.074h4.582v5.1h-4.582z"/><path d="m90.15 34.918h4.582v5.1h-4.582z"/><path d="m90.15 43.762h4.582v5.1h-4.582z"/><path d="m90.15 52.606h4.582v5.1h-4.582z"/><path d="m90.15 61.45h4.582v5.1h-4.582z"/><path d="m90.15 70.294h4.582v5.1h-4.582z"/><path d="m90.15 79.138h4.582v5.1h-4.582z"/><path d="m90.15 87.983h4.582v5.1h-4.582z"/><path d="m90.15 96.827h4.582v5.1h-4.582z"/><path d="m33.268 26.074h4.582v5.1h-4.582z"/><path d="m33.268 34.918h4.582v5.1h-4.582z"/><path d="m33.268 43.762h4.582v5.1h-4.582z"/><path d="m33.268 52.606h4.582v5.1h-4.582z"/><path d="m33.268 61.45h4.582v5.1h-4.582z"/><path d="m33.268 70.294h4.582v5.1h-4.582z"/><path d="m33.268 79.138h4.582v5.1h-4.582z"/><path d="m33.268 87.983h4.582v5.1h-4.582z"/><path d="m33.268 96.827h4.582v5.1h-4.582z"/></g><path d="m77.1 62.563c0 5.979-5.662 13.387-13.093 17.7-7.12-4.207-13.1-11.667-13.1-17.7a6.83 6.83 0 0 1 13.1-2.7 6.826 6.826 0 0 1 13.093 2.7z" fill="#ef5261"/></g></svg>