<svg height="512" viewBox="0 0 128 128" width="512" xmlns="http://www.w3.org/2000/svg"><g id="Circle_Grid" data-name="Circle Grid"><circle cx="64" cy="64" fill="#f6c863" r="64"/></g><g id="icon"><path d="m51.857 85.812-1.809 7.34h27.904l-1.809-7.34z" fill="#62667c"/><path d="m81.58 93.152h-35.16a3.062 3.062 0 0 0 -3.062 3.062v1.7h41.284v-1.7a3.062 3.062 0 0 0 -3.062-3.062z" fill="#575b6d"/><rect fill="#575b6d" height="56.378" rx="3.062" width="82" x="23" y="30.083"/><path d="m26.459 33.541h75.082v43.408h-75.082z" fill="#69b0ee"/><circle cx="64.072" cy="81.705" fill="#828a9e" r="1.405"/><path d="m77.569 49.612c0 6.2-5.866 13.871-13.566 18.339-7.377-4.359-13.573-12.089-13.573-18.339a7.076 7.076 0 0 1 13.57-2.803 7.072 7.072 0 0 1 13.566 2.8z" fill="#ef5261"/></g></svg>