<svg height="512" viewBox="0 0 128 128" width="512" xmlns="http://www.w3.org/2000/svg"><g id="Circle_Grid" data-name="Circle Grid"><circle cx="64" cy="64" fill="#ef5261" r="64"/></g><g id="icon"><path d="m95.708 40.441v63.559h-63.416v-80h46.975z" fill="#eeefee"/><g fill="#dbd8dd"><path d="m95.708 40.441h-16.441v-16.441z"/><path d="m37.442 58.8h53.117v1.624h-53.117z"/><path d="m37.442 49.05h53.117v1.624h-53.117z"/><path d="m37.442 68.167h53.117v1.624h-53.117z"/><path d="m37.442 77.533h53.117v1.624h-53.117z"/><path d="m37.442 86.9h26.117v1.624h-26.117z"/><path d="m37.442 96.267h26.117v1.624h-26.117z"/></g><path d="m60.648 33.82c0 3.295-3.12 7.377-7.215 9.753-3.923-2.318-7.218-6.429-7.218-9.753a3.763 3.763 0 0 1 7.218-1.491 3.761 3.761 0 0 1 7.215 1.491z" fill="#ef5261"/><path d="m71 95.513a4.613 4.613 0 0 1 -.818-.071 3.153 3.153 0 0 1 -2.672-2.49l.907-.124a2.286 2.286 0 0 0 1.927 1.713 6.4 6.4 0 0 0 3.043-.426 7.682 7.682 0 0 0 .988-.385 6.986 6.986 0 0 1 -1.928-4.73 3.527 3.527 0 0 1 .988-3.079 3.3 3.3 0 0 1 2.554-.583 1.836 1.836 0 0 1 1.571.868 1.95 1.95 0 0 1 .157.956 18.021 18.021 0 0 1 -.509 3.812 6.15 6.15 0 0 1 -1.266 2.718 1.705 1.705 0 0 0 1.562-.011c.086-.054.166-.118.248-.182a2.309 2.309 0 0 1 .64-.391 2.354 2.354 0 0 1 1.817.291c.111.051.22.1.329.146a6.408 6.408 0 0 0 2.605.3 5.421 5.421 0 0 0 2.543-.534 1.756 1.756 0 0 0 .93-1.862l.877-.267a2.65 2.65 0 0 1 -1.342 2.918 6.193 6.193 0 0 1 -2.977.659 7.117 7.117 0 0 1 -2.984-.373c-.12-.049-.241-.1-.362-.16a1.669 1.669 0 0 0 -1.125-.262 1.6 1.6 0 0 0 -.387.251 3.842 3.842 0 0 1 -.325.236 2.742 2.742 0 0 1 -2.818-.126 6.94 6.94 0 0 1 -1.5.651 8.618 8.618 0 0 1 -2.673.537zm4.392-9.292a2.091 2.091 0 0 0 -1.372.405 2.7 2.7 0 0 0 -.661 2.321 6.143 6.143 0 0 0 1.79 4.25 5.072 5.072 0 0 0 1.17-2.439 17.14 17.14 0 0 0 .482-3.618 1.183 1.183 0 0 0 -.06-.521c-.122-.242-.531-.335-.853-.37a4.507 4.507 0 0 0 -.494-.028z" fill="#575b6d"/><path d="m67.916 96.858h20.924v.916h-20.924z" fill="#575b6d" transform="matrix(.995 -.096 .096 .995 -8.956 7.95)"/><path d="m90.273 95.277h.754v.916h-.754z" fill="#575b6d"/></g></svg>