<svg height="512" viewBox="0 0 128 128" width="512" xmlns="http://www.w3.org/2000/svg"><g id="Circle_Grid" data-name="Circle Grid"><circle cx="64" cy="64" fill="#3b5059" r="64"/></g><g id="icon"><path d="m96.412 78.4v20.525h-64.851v-20.525l19.801-11.706 12.679-7.494 12.64 7.494 2.317 1.376z" fill="#eeefee"/><path d="m76.083 62.4.563.288v5.747l-1.811-.915-22.329.282-20.98 10.598-2.771-4.371 24.691-12.346z" fill="#ef5261"/><path d="m99.245 74.24-2.867 4.16-17.415-8.794v-5.734z" fill="#ef5261"/><path d="m76.646 48.64-12.693-11.52-12.627 11.52v50.282h25.32z" fill="#eeefee"/><path d="m78.963 63.872v5.734l-2.317-1.171v-5.747z" fill="#da364c"/><path d="m78.963 69.606v29.319h-2.317v-30.49z" fill="#dbd8dd"/><path d="m48.943 63.872v5.734l2.317-1.171v-5.747z" fill="#da364c"/><path d="m48.943 69.606v29.319h2.317v-30.49z" fill="#dbd8dd"/><g fill="#bbbbcd"><path d="m63.986 49.68a4.4 4.4 0 0 1 4.4 4.4v8.56a0 0 0 0 1 0 0h-8.8a0 0 0 0 1 0 0v-8.56a4.4 4.4 0 0 1 4.4-4.4z"/><path d="m87.67 79.92a4.4 4.4 0 0 1 4.4 4.4v8.56a0 0 0 0 1 0 0h-8.8a0 0 0 0 1 0 0v-8.56a4.4 4.4 0 0 1 4.4-4.4z"/><path d="m40.235 79.92a4.4 4.4 0 0 1 4.4 4.4v8.56a0 0 0 0 1 0 0h-8.8a0 0 0 0 1 0 0v-8.56a4.4 4.4 0 0 1 4.4-4.4z"/></g><path d="m62.489 20h2.874v15.52h-2.874z" fill="#f6b863"/><path d="m62.489 18.836h2.874v12.564h-2.874z" fill="#f6b863" transform="matrix(0 1 -1 0 89.044 -38.809)"/><path d="m65.363 23.681h.657v2.874h-.657z" fill="#eaa14e"/><path d="m61.832 23.681h.657v2.874h-.657z" fill="#eaa14e"/><path d="m63.986 76a6.8 6.8 0 0 1 6.8 6.8v16.122a0 0 0 0 1 0 0h-13.6a0 0 0 0 1 0 0v-16.122a6.8 6.8 0 0 1 6.8-6.8z" fill="#575b6d"/><path d="m76.646 48.64 4.88-2.32-17.517-12.96-17.683 12.88 5 2.4 12.683-8.96z" fill="#ef5261"/><path d="m28.755 98.682h70.49v3.318h-70.49z" fill="#ef5261"/></g></svg>