<svg height="512" viewBox="0 0 128 128" width="512" xmlns="http://www.w3.org/2000/svg"><g id="Circle_Grid" data-name="Circle Grid"><circle cx="64" cy="64" fill="#2cbfae" r="64"/></g><g id="icon"><path d="m44.8 98.548a1.193 1.193 0 0 1 -1.243-1.03 17.037 17.037 0 0 1 .01-3.865 20.234 20.234 0 0 1 3.95-9.47c.271-.379.555-.744.839-1.082l1.732 1.732c-.284.365-.568.73-.839 1.109a17.515 17.515 0 0 0 -3.287 8.022 14.587 14.587 0 0 0 -.014 3.29 1.187 1.187 0 0 1 -1.148 1.294z" fill="#575b6d"/><path d="m68.344 53.686-42.7 42.138a1.55 1.55 0 1 1 -2.178-2.205l42.7-42.138a1.55 1.55 0 1 1 2.178 2.205z" fill="#fed19a"/><path d="m96.3 54.368-1.65 1.623-6.79 6.709-3.99 3.938-3.761 3.707-3.964 3.909-3.72 3.693-3.991 3.937-3.707 3.653-3.977 3.923-1 1-2.693 2.64-.379.352-7.427-7.508-.054-.054-1.677-1.7-4.992-5.046-2.178-2.211 2.25-2.219 1.312-1.258.933-.933 3.138-3.084 4-3.977 4.14-4.085 4.058-4 4.207-4.153 1.772-1.745 2.273-2.246 4.342-4.288 4.072-4.018c.081.433.176.879.3 1.353l10.267 10.262a55.441 55.441 0 0 1 -3.856-7.642l-5.343-5.343 1.759-1.732 1.907 1.934z" fill="#eeefee"/><g fill="#ef5261"><path d="m83.558 44.9-5.343-5.343 1.759-1.732 1.907 1.934a38.518 38.518 0 0 0 1.677 5.141z"/><path d="m91.621 58.968-3.761 3.732c-6.75-9.05-9.578-15.8-10.714-20.427l10.268 10.269q1.745 3.003 4.207 6.426z"/><path d="m83.872 66.631-3.761 3.714c-7.163-9.27-10.348-16.256-11.677-21.123l4.342-4.289c.94 4.679 3.698 11.849 11.096 21.698z"/><path d="m76.145 74.263-3.727 3.681c-7.018-8.744-10.518-15.544-12.241-20.567l4.205-4.153c1.418 4.885 4.633 11.837 11.763 21.039z"/><path d="m68.435 81.877-3.71 3.664c-6.88-8.334-10.661-15-12.737-20.076l4.137-4.086c1.775 5.04 5.347 11.807 12.31 20.498z"/><path d="m60.76 89.458-3.693 3.647c-6.797-7.977-10.817-14.505-13.167-19.654l4.069-4.018c2.078 5.109 5.931 11.742 12.791 20.025z"/><path d="m100.089 61.43-27.312-27.313 32.02-4.667.203-.041z"/></g><path d="m87.414 52.542-10.268-10.268c-.122-.474-.216-.92-.3-1.353l1.366-1.366 5.346 5.345a55.441 55.441 0 0 0 3.856 7.642z" fill="#da364c"/><path d="m76.849 40.921c.081.433.176.879.3 1.353l-.825-.825z" fill="#dbd8dd"/><path d="m94.624 55.964-1.894 1.894-5.316-5.316a55.441 55.441 0 0 1 -3.856-7.642z" fill="#dbd8dd"/><path d="m46.14 98.496-2.421.095" fill="#575b6d"/></g></svg>