<svg height="512" viewBox="0 0 128 128" width="512" xmlns="http://www.w3.org/2000/svg"><g id="Circle_Grid" data-name="Circle Grid"><circle cx="64" cy="64" fill="#3b5059" r="64"/></g><g id="icon"><path d="m80.318 31.156h11.07v19.956h-11.07z" fill="#eeefee"/><path d="m96.651 54.282v44.194h-65.292v-44.194l33.61-26.786z" fill="#eeefee"/><g fill="#ef5261"><path d="m23.62 59.5a2.87 2.87 0 0 1 .468-4.031l37.541-29.733a3.827 3.827 0 0 1 4.752 0l37.531 29.728a2.87 2.87 0 0 1 .468 4.031 2.87 2.87 0 0 1 -4.031.468l-36.344-28.786-36.354 28.786a2.87 2.87 0 0 1 -4.031-.463z"/><rect height="4.521" rx=".598" width="13.163" x="79.271" y="27.641"/><path d="m80.908 64.23c0 7.72-7.31 17.284-16.9 22.852-9.197-5.431-16.916-15.064-16.916-22.852a8.818 8.818 0 0 1 16.908-3.492 8.813 8.813 0 0 1 16.9 3.492z"/><rect height="5.854" rx="1.156" width="73.328" x="27.336" y="97.237"/></g></g></svg>