<svg height="512" viewBox="0 0 128 128" width="512" xmlns="http://www.w3.org/2000/svg"><g id="Circle_Grid" data-name="Circle Grid"><circle cx="64" cy="64" fill="#69b0ee" r="64"/></g><g id="icon"><path d="m64 72.228c-18.622 0-33.773-11.042-33.773-24.614s15.151-24.614 33.773-24.614 33.773 11.042 33.773 24.614-15.15 24.614-33.773 24.614zm0-46.885c-17.2 0-31.2 9.99-31.2 22.271s14 22.271 31.2 22.271 31.2-9.99 31.2-22.271-14-22.27-31.2-22.27z" fill="#dbd8dd"/><path d="m62.96 70.446h2.081v10.779h-2.081z" fill="#eeefee"/><path d="m80.3 82.977c0 5.347-3.641 11.612-9.123 16.708a39.95 39.95 0 0 1 -7.177 5.315c-8.857-5.232-16.3-14.522-16.3-22.023a8.5 8.5 0 0 1 16.024-3.944q.149.28.274.572a8.686 8.686 0 0 1 .855-1.527 8.5 8.5 0 0 1 15.444 4.9z" fill="#da364c"/><path d="m78.229 85.763c-.271 4.469-2.956 9.5-7.053 13.921a39.95 39.95 0 0 1 -7.176 5.316c-8.857-5.232-16.3-14.522-16.3-22.023a8.453 8.453 0 0 1 1.55-4.9 8.465 8.465 0 0 1 4.9-1.554 9.485 9.485 0 0 1 8.178 5.611 7.738 7.738 0 0 1 1.672-2.528c.1.187-.083-.195 0 0l.007-.016a4.6 4.6 0 0 1 2.393-2.379 8.485 8.485 0 0 1 3.435-.686 8.583 8.583 0 0 1 8.394 9.238z" fill="#ef5261"/><g fill="#eeefee"><circle cx="76.53" cy="68.828" r="2.971"/><circle cx="70.124" cy="70.144" r="2.684"/><circle cx="83.867" cy="66.567" r="3.989"/><circle cx="50.907" cy="68.912" r="2.971"/><circle cx="57.272" cy="70.227" r="2.684"/><circle cx="64" cy="71.596" r="2.684"/><circle cx="43.571" cy="66.567" r="3.989"/></g></g></svg>