<svg height="512" viewBox="0 0 128 128" width="512" xmlns="http://www.w3.org/2000/svg"><g id="Circle_Grid" data-name="Circle Grid"><circle cx="64" cy="64" fill="#3b5059" r="64"/></g><g id="icon"><path d="m85.342 56.487s-.051.255-.136.7c-.443 2.03-2.109 7.977-6.65 10.58-4.562 2.616-10.536 1.05-12.512.407-.425-.151-.671-.236-.671-.236s.039-.276.145-.732c.452-2.064 2.13-7.989 6.65-10.58 4.5-2.58 10.46-1.035 12.469-.383.447.139.705.244.705.244z" fill="#2cbfae"/><path d="m79.885 59.956-3.985 2.283-1.343.772-3.952 2.261-1.343.772-3.672 2.1-.045.022-.459.269-1.108.638-1.623.929v-1.27l.5-.291 1.119-.638 1.041-.6.571-.325 2.989-1.713 1.343-.772 3.952-2.261 1.343-.772 4.119-2.362a.554.554 0 1 1 .548.963z" fill="#16a897"/><path d="m76.165 57.852-1.3 4.785c-.406.193-.638.307-.638.307s-.167-.222-.413-.617l1.291-4.762a.548.548 0 0 1 .661-.389.548.548 0 0 1 .399.676z" fill="#16a897"/><path d="m70.87 60.889-1.3 4.785c-.406.193-.638.307-.638.307s-.167-.222-.413-.617l1.293-4.764a.548.548 0 0 1 .661-.389.548.548 0 0 1 .397.678z" fill="#16a897"/><path d="m79.526 63.222-4.785-1.3c-.371.253-.587.4-.587.4s.107.256.324.668l4.762 1.291a.548.548 0 0 0 .669-.374.548.548 0 0 0 -.383-.685z" fill="#16a897"/><path d="m74.231 66.258-4.785-1.3c-.371.253-.587.4-.587.4s.107.256.324.668l4.762 1.291a.548.548 0 0 0 .669-.374.548.548 0 0 0 -.383-.685z" fill="#16a897"/><path d="m42.658 56.206s.051.255.136.7c.443 2.03 2.109 7.977 6.65 10.58 4.562 2.616 10.536 1.05 12.512.407.425-.151.671-.236.671-.236s-.039-.276-.145-.732c-.452-2.064-2.13-7.989-6.65-10.58-4.5-2.58-10.46-1.035-12.469-.383-.447.138-.705.244-.705.244z" fill="#2cbfae"/><g fill="#16a897"><path d="m65.985 68.732v1.276l-1.612-.929-1.119-.638-.459-.269-.045-.022-3.672-2.1-1.343-.772-3.94-2.261-1.343-.772-3.985-2.284a.562.562 0 0 1 -.213-.772.569.569 0 0 1 .761-.19l4.119 2.362 1.332.761 3.963 2.272 1.332.772 2.989 1.713.571.325 1.052.6 1.108.638z"/><path d="m52.179 57.852 1.3 4.785c.406.193.638.307.638.307s.167-.222.413-.617l-1.291-4.762a.548.548 0 0 0 -.661-.389.548.548 0 0 0 -.399.676z"/><path d="m57.474 60.889 1.3 4.785c.406.193.638.307.638.307s.167-.222.413-.617l-1.293-4.764a.548.548 0 0 0 -.661-.389.548.548 0 0 0 -.397.678z"/><path d="m48.818 63.222 4.785-1.3c.371.253.587.4.587.4s-.107.256-.324.668l-4.766 1.29a.548.548 0 0 1 -.669-.374.548.548 0 0 1 .387-.684z"/><path d="m54.113 66.258 4.785-1.3c.371.253.587.4.587.4s-.107.256-.324.668l-4.761 1.291a.548.548 0 0 1 -.669-.374.548.548 0 0 1 .382-.685z"/><path d="m62.355 51.758h3.63v23.186h-3.63z"/></g><path d="m82.293 78.812-.075.5-.49 3.077-3.278 20.6a2.365 2.365 0 0 1 -2.35 2.011h-23.7a2.375 2.375 0 0 1 -2.349-2.01l-3.278-20.6-.49-3.077-.075-.5z" fill="#f6b863"/><rect fill="#f6b863" height="8.139" rx="1.513" width="41.194" x="43.658" y="71.171"/><path d="m81.213 31.883c0 7.781-7.368 17.422-17.039 23.034-9.266-5.474-17.047-15.184-17.047-23.034a8.888 8.888 0 0 1 17.047-3.52 8.883 8.883 0 0 1 17.039 3.52z" fill="#ef5261"/><path d="m81.213 31.883c0 7.781-7.368 17.422-17.039 23.034-9.266-5.474-17.047-15.184-17.047-23.034a8.888 8.888 0 0 1 17.047-3.52 8.883 8.883 0 0 1 17.039 3.52z" fill="#ef5261"/><path d="m82.217 79.315-.489 3.077h-34.952l-.49-3.077z" fill="#eaa14e"/></g></svg>