<svg height="512" viewBox="0 0 128 128" width="512" xmlns="http://www.w3.org/2000/svg"><g id="Circle_Grid" data-name="Circle Grid"><circle cx="64" cy="64" fill="#69b0ee" r="64"/></g><g id="icon"><path d="m87.669 91.138a13.406 13.406 0 0 1 -5.883 3.028 7.949 7.949 0 0 1 -7.741-2.133c-3.062-3.44-1.961-9.461 2.477-13.417a11.45 11.45 0 0 1 9.942-3.028 6.687 6.687 0 0 1 3.681 2.133c3.063 3.44 1.963 9.461-2.476 13.417z" fill="#da364c"/><path d="m87.669 91.138a13.406 13.406 0 0 1 -5.883 3.028 6.932 6.932 0 0 1 -3.647-2.133c-3.062-3.44-1.961-9.461 2.477-13.417a12.777 12.777 0 0 1 5.848-3.028 6.687 6.687 0 0 1 3.681 2.133c3.063 3.44 1.963 9.461-2.476 13.417z" fill="#ef5261"/><path d="m51.477 101.734a12.775 12.775 0 0 1 -5.848 3.028c-3.028.654-5.952-.034-7.775-2.1-3.062-3.44-1.961-9.461 2.477-13.417a11.452 11.452 0 0 1 9.943-3.028 6.688 6.688 0 0 1 3.681 2.133c3.061 3.442 1.96 9.428-2.478 13.384z" fill="#da364c"/><path d="m51.477 101.734a12.775 12.775 0 0 1 -5.848 3.028 6.848 6.848 0 0 1 -3.681-2.1c-3.062-3.44-1.961-9.461 2.477-13.417a12.779 12.779 0 0 1 5.849-3.028 6.688 6.688 0 0 1 3.681 2.133c3.061 3.442 1.96 9.428-2.478 13.384z" fill="#ef5261"/><path d="m91.859 82.731v-38.844a3.44 3.44 0 0 0 -4.406-3.3l-32.822 9.6a3.44 3.44 0 0 0 -2.475 3.3v35.587l3.5 4.731v-29.405l32.406-9.568v22.523z" fill="#ef5261"/><path d="m81.184 28.486c1.018 2.227.175 5.94-1.871 8.811a12.729 12.729 0 0 1 -4.133-1.166 7.174 7.174 0 0 1 -3.73-3.2 2.771 2.771 0 0 1 1.372-3.682 2.723 2.723 0 0 1 1.155-.249c.025-.011.036.013.061 0a2.685 2.685 0 0 1 1.809.716 2.815 2.815 0 0 1 1.629-2.59 2.851 2.851 0 0 1 1.179-.267 2.771 2.771 0 0 1 2.529 1.627z" fill="#da364c"/><path d="m79.361 27.807c1.018 2.227.175 5.94-1.871 8.811a11.251 11.251 0 0 1 -2.31-.487 7.174 7.174 0 0 1 -3.73-3.2 2.771 2.771 0 0 1 1.372-3.682 2.723 2.723 0 0 1 1.155-.249c.011.025.036.013.048.038l.014-.038a2.685 2.685 0 0 1 1.809.716 2.815 2.815 0 0 1 1.629-2.59 2.851 2.851 0 0 1 1.179-.267 2.638 2.638 0 0 1 .705.948z" fill="#ef5261"/><path d="m53.3 38.2c.009 2.449-2.29 5.484-5.337 7.256a12.729 12.729 0 0 1 -3.283-2.766 7.174 7.174 0 0 1 -2.08-4.449 2.771 2.771 0 0 1 2.768-2.789 2.723 2.723 0 0 1 1.156.243c.028 0 .028.027.055.027a2.685 2.685 0 0 1 1.353 1.4 2.815 2.815 0 0 1 2.552-1.688 2.851 2.851 0 0 1 1.184.243 2.771 2.771 0 0 1 1.632 2.523z" fill="#da364c"/><g fill="#ef5261"><path d="m51.921 36.83c.009 2.449-2.29 5.484-5.337 7.256a11.251 11.251 0 0 1 -1.9-1.4 7.174 7.174 0 0 1 -2.08-4.449 2.771 2.771 0 0 1 2.768-2.789 2.723 2.723 0 0 1 1.156.243c0 .027.028.027.028.055l.027-.028a2.685 2.685 0 0 1 1.353 1.4 2.815 2.815 0 0 1 2.552-1.688 2.851 2.851 0 0 1 1.184.243 2.638 2.638 0 0 1 .249 1.157z"/><circle cx="63.328" cy="37.895" r="2.463"/><circle cx="42.6" cy="51.768" r="1.929"/><circle cx="55.231" cy="24.929" r="1.929"/></g></g></svg>