<svg height="512" viewBox="0 0 128 128" width="512" xmlns="http://www.w3.org/2000/svg"><g id="Circle_Grid" data-name="Circle Grid"><circle cx="64" cy="64" fill="#f6c863" r="64"/></g><g id="icon"><path d="m95.9 36.19v48.2h-63.785v-48.2a5.473 5.473 0 0 1 5.462-5.474h52.846a5.476 5.476 0 0 1 5.477 5.474z" fill="#eeefee"/><path d="m95.9 36.19v48.2h-63.785v-48.2a5.473 5.473 0 0 1 5.462-5.474h52.846a5.476 5.476 0 0 1 5.477 5.474z" fill="#dbd8dd"/><path d="m86.782 36.19v48.2h-54.667v-48.2a5.473 5.473 0 0 1 5.462-5.474h43.731a5.476 5.476 0 0 1 5.474 5.474z" fill="#eeefee"/><path d="m100.851 36.19v43.347h-4.951v-43.347a5.476 5.476 0 0 0 -5.474-5.474h-52.849a5.473 5.473 0 0 0 -5.462 5.474v43.347h-4.954v-43.347a10.426 10.426 0 0 1 10.416-10.428h52.846a10.428 10.428 0 0 1 10.428 10.428z" fill="#da364c"/><path d="m105 80.726v6.936a14.578 14.578 0 0 1 -14.577 14.577h-52.846a14.592 14.592 0 0 1 -14.577-14.578v-6.935a2.476 2.476 0 0 1 2.477-2.477h77.046a2.469 2.469 0 0 1 2.477 2.477z" fill="#da364c"/><path d="m100.987 78.249v5.4a14.578 14.578 0 0 1 -14.577 14.577h-52.846a14.44 14.44 0 0 1 -8.1-2.465 14.441 14.441 0 0 1 -2.464-8.1v-6.935a2.476 2.476 0 0 1 2.477-2.477z" fill="#ef5261"/><path d="m95.9 36.19v43.347h-63.785v-43.347a5.473 5.473 0 0 1 5.462-5.474h52.846a5.476 5.476 0 0 1 5.477 5.474z" fill="none"/><path d="m56.727 78.247h14.552a0 0 0 0 1 0 0v4.9a1.238 1.238 0 0 1 -1.238 1.238h-12.076a1.238 1.238 0 0 1 -1.238-1.238v-4.9a0 0 0 0 1 0 0z" fill="#f6c863"/><path d="m71.276 78.249v4.9a1.242 1.242 0 0 1 -1.238 1.238h-12.076a1.242 1.242 0 0 1 -1.238-1.238v-4.9z" fill="#eab54e"/><path d="m69.245 78.249v2.873a1.234 1.234 0 0 1 -1.238 1.238h-11.283v-4.111z" fill="#f6c863"/><path d="m64.006 45.714c-.409 0-.83.012-1.226.037a16.909 16.909 0 0 0 -11.78 27.668h5.821a12.969 12.969 0 0 1 5.959-23.719c.4-.037.805-.062 1.226-.062a12.978 12.978 0 0 1 7.2 23.779h5.804a16.9 16.9 0 0 0 -13-27.7z" fill="#eab54e"/><path d="m62.78 45.751a16.909 16.909 0 0 0 -11.78 27.668h3.356a12.978 12.978 0 0 1 7.185-23.779c.421 0 .83.025 1.238.062.4-.037.805-.062 1.226-.062a12.978 12.978 0 0 1 7.2 23.779h3.357a16.909 16.909 0 0 0 -11.782-27.668z" fill="#f6c863"/><path d="m64.011 35.106-3.373 4.58-1.554-4.58z" fill="#48acf7"/><path d="m60.638 39.686h-5.367l3.813-4.58z" fill="#70bef9"/><path d="m72.74 39.686h-5.356l1.543-4.58z" fill="#70bef9"/><path d="m72.74 39.686-8.729 9.986 3.373-9.986z" fill="#69b0ee"/><path d="m64.011 49.672-8.74-9.986h5.367z" fill="#69b0ee"/><path d="m68.927 35.106-1.543 4.58h-.01l-3.363-4.58z" fill="#48acf7"/><path d="m67.384 39.686-3.373 9.986-3.373-9.986z" fill="#70bef9"/><path d="m67.374 39.686h-6.736l3.373-4.58z" fill="#69b0ee"/><path d="m95.9 78.249h-63.785a9.651 9.651 0 0 1 9.648-9.649h44.486a9.641 9.641 0 0 1 9.651 9.649z" fill="#d18a4a"/><path d="m88.85 78.336h-56.735a9.825 9.825 0 0 1 9.822-9.821h37.092a9.815 9.815 0 0 1 9.822 9.821z" fill="#dd944b"/></g></svg>