<svg height="512" viewBox="0 0 128 128" width="512" xmlns="http://www.w3.org/2000/svg"><g id="Circle_Grid" data-name="Circle Grid"><circle cx="64" cy="64" fill="#ea8953" r="64"/></g><g id="icon"><path d="m71.141 23h1.744a.487.487 0 0 1 .487.487v9.086a0 0 0 0 1 0 0h-2.717a0 0 0 0 1 0 0v-9.086a.487.487 0 0 1 .486-.487z" fill="#eeefee"/><path d="m55 23h1.744a.487.487 0 0 1 .487.487v9.086a0 0 0 0 1 0 0h-2.72a0 0 0 0 1 0 0v-9.086a.487.487 0 0 1 .489-.487z" fill="#eeefee"/><path d="m78.563 40.083a28.857 28.857 0 0 1 -1.563 7.068l-2.19 5.963h-21.737l-2.19-5.963a28.851 28.851 0 0 1 -1.562-7.068c-.268-3.582.433-7.428 4.24-8.63 7.705-2.434 10.382 6.693 10.382 6.693s2.677-9.126 10.382-6.693c3.805 1.202 4.506 5.047 4.238 8.63z" fill="#dbd8dd"/><path d="m78.563 40.083a28.857 28.857 0 0 1 -1.563 7.068l-2.19 5.963h-21.737l-2.19-5.963a28.851 28.851 0 0 1 -1.562-7.068c.234-2.716 1.324-5.194 4.24-6.113 7.705-2.434 10.382 6.693 10.382 6.693s2.677-9.126 10.382-6.693c2.914.92 4.005 3.397 4.238 6.113z" fill="#eeefee"/><path d="m53.19 53.113h21.62v5.03h-21.62z" fill="#ef5261"/><path d="m91.847 99.924c-4.906 7.218-49.809 6.3-55.693 0-.01-1.071.029-2.142.1-3.208 1.426-20.064 16.934-38.575 16.934-38.575h21.623s15.527 18.536 16.933 38.614c.073 1.056.112 2.112.103 3.169z" fill="#dbd8dd"/><path d="m91.744 96.755c-5.369 7.024-49.259 6.133-55.489-.039 1.426-20.064 16.934-38.575 16.934-38.575h21.622s15.527 18.536 16.933 38.614z" fill="#eeefee"/><g fill="#dbd8dd"><path d="m79.272 101.691a44.766 44.766 0 0 0 -3.529-23.429s1.46 13.182-1.7 24.377z"/><path d="m54.2 102.639c-3.164-12.9 1.1-32.977 1.1-32.977s-8.4 16.793-5.963 32.977"/><path d="m63.941 103.516c1.92-3.772.662-11.439.662-11.439a68.613 68.613 0 0 1 -2.555 10.562"/></g></g></svg>