<svg height="512" viewBox="0 0 128 128" width="512" xmlns="http://www.w3.org/2000/svg"><g id="Circle_Grid" data-name="Circle Grid"><circle cx="64" cy="64" fill="#69b0ee" r="64"/></g><g id="icon"><path d="m86.3 67.36a1.139 1.139 0 0 1 -1.139-1.139v-24.71a7.108 7.108 0 0 1 12.861-4.178 76.966 76.966 0 0 1 4.351 6.777 1.139 1.139 0 1 1 -1.974 1.135 74.716 74.716 0 0 0 -4.22-6.576 4.83 4.83 0 0 0 -8.74 2.841v24.71a1.139 1.139 0 0 1 -1.139 1.14z" fill="#dbd8dd"/><path d="m86.324 64.52c-.011 0-.011-.023-.023-.034l.011-.011c.001.011.012.034.012.045z" fill="#da364c"/><path d="m105 68.346c0 6.138-4.179 13.324-10.465 19.177a46.143 46.143 0 0 1 -8.235 6.093c-.911-.535-1.811-1.116-2.688-1.708-8.938-6.184-16.012-15.727-16.012-23.562a9.752 9.752 0 0 1 7.049-9.372 10.033 10.033 0 0 1 2.7-.376 9.614 9.614 0 0 1 5.853 1.97c.125.091.251.194.376.3a9.652 9.652 0 0 1 2.4 2.961c.114.216.216.433.319.661.011.011.011.034.023.034s-.011-.034-.011-.046v-.011a1.611 1.611 0 0 1 .091-.2 8.835 8.835 0 0 1 .877-1.526 9.75 9.75 0 0 1 17.723 5.605z" fill="#da364c"/><path d="m86.4 64.258a1.611 1.611 0 0 0 -.091.2h-.009z" fill="#ef5261"/><path d="m99.591 68.346c0 6.138-4.179 13.324-10.465 19.177a46.345 46.345 0 0 1 -5.512 4.384c-8.94-6.183-16.014-15.726-16.014-23.561a9.752 9.752 0 0 1 7.049-9.372 10.033 10.033 0 0 1 2.7-.376 9.614 9.614 0 0 1 5.853 1.97c.137.262.262.387.376.3a9.652 9.652 0 0 1 2.4 2.961c.114.216.216.433.319.661l.011-.011v-.011h-.008l.1-.2a8.835 8.835 0 0 1 .877-1.526 9.649 9.649 0 0 1 5.261-3.747 9.722 9.722 0 0 1 7.053 9.351z" fill="#ef5261"/><g fill="#eeefee"><circle cx="86.399" cy="62.882" r="1.643"/><circle cx="86.399" cy="58.277" r="2.305"/><circle cx="86.399" cy="52.203" r="2.851"/></g><path d="m41.694 67.36a1.139 1.139 0 0 1 -1.139-1.139v-24.71a7.108 7.108 0 0 1 12.861-4.178 76.966 76.966 0 0 1 4.351 6.777 1.139 1.139 0 1 1 -1.974 1.135 74.716 74.716 0 0 0 -4.22-6.576 4.83 4.83 0 0 0 -8.74 2.841v24.71a1.139 1.139 0 0 1 -1.139 1.14z" fill="#dbd8dd"/><path d="m41.722 64.52c-.011 0-.011-.023-.023-.034l.011-.011c0 .011.012.034.012.045z" fill="#da364c"/><path d="m60.4 68.346c0 6.138-4.179 13.324-10.465 19.177a46.143 46.143 0 0 1 -8.235 6.093c-.911-.535-1.811-1.116-2.688-1.708-8.94-6.184-16.012-15.727-16.012-23.562a9.752 9.752 0 0 1 7.049-9.372 10.033 10.033 0 0 1 2.7-.376 9.614 9.614 0 0 1 5.853 1.97c.125.091.251.194.376.3a9.652 9.652 0 0 1 2.4 2.961c.114.216.216.433.319.661.011.011.011.034.023.034s-.011-.034-.011-.046v-.011a1.611 1.611 0 0 1 .091-.2 8.835 8.835 0 0 1 .877-1.526 9.75 9.75 0 0 1 17.723 5.605z" fill="#da364c"/><path d="m41.8 64.258a1.611 1.611 0 0 0 -.091.2h-.009z" fill="#ef5261"/><path d="m54.988 68.346c0 6.138-4.179 13.324-10.465 19.177a46.345 46.345 0 0 1 -5.512 4.384c-8.939-6.183-16.011-15.726-16.011-23.561a9.752 9.752 0 0 1 7.049-9.372 10.033 10.033 0 0 1 2.7-.376 9.614 9.614 0 0 1 5.853 1.97c.137.262.262.387.376.3a9.652 9.652 0 0 1 2.4 2.961c.114.216.216.433.319.661l.011-.011v-.011h-.008l.1-.2a8.835 8.835 0 0 1 .877-1.526 9.649 9.649 0 0 1 5.261-3.747 9.722 9.722 0 0 1 7.05 9.351z" fill="#ef5261"/><circle cx="41.797" cy="62.882" fill="#eeefee" r="1.643"/><circle cx="41.797" cy="58.277" fill="#eeefee" r="2.305"/><circle cx="41.797" cy="52.203" fill="#eeefee" r="2.851"/></g></svg>