<svg height="512" viewBox="0 0 128 128" width="512" xmlns="http://www.w3.org/2000/svg"><g id="Circle_Grid" data-name="Circle Grid"><circle cx="64" cy="64" fill="#3b5059" r="64"/></g><g id="icon"><path d="m89.485 41.961 9.915 57.478a2.189 2.189 0 0 1 -2.157 2.561h-66.486a2.189 2.189 0 0 1 -2.157-2.561l9.915-57.478a2.189 2.189 0 0 1 2.157-1.817h46.656a2.189 2.189 0 0 1 2.157 1.817z" fill="#f6b863"/><path d="m80.42 48.451a2.74 2.74 0 1 1 -2.739-2.725 2.74 2.74 0 0 1 2.739 2.725z" fill="#414451"/><path d="m53.059 48.451a2.74 2.74 0 1 1 -2.739-2.725 2.74 2.74 0 0 1 2.739 2.725z" fill="#414451"/><path d="m77.68 48.914a1.094 1.094 0 0 1 -1.094-1.094v-13.045a12.586 12.586 0 0 0 -25.171 0v13.045a1.094 1.094 0 1 1 -2.189 0v-13.045a14.775 14.775 0 0 1 29.549 0v13.045a1.094 1.094 0 0 1 -1.095 1.094z" fill="#eeefee"/><path d="m64.023 68.7c-.01 0-.01-.02-.02-.03l.01-.01c0 .01.01.03.01.04z" fill="#da364c"/><g fill="#ef5261"><path d="m80.423 72.06c0 5.39-3.67 11.7-9.19 16.84a40.522 40.522 0 0 1 -7.233 5.35c-8.93-5.27-16.42-14.63-16.42-22.19a8.555 8.555 0 0 1 8.56-8.56 8.552 8.552 0 0 1 7.58 4.59c.1.19.19.38.28.58.01.01.01.03.02.03s-.01-.03-.01-.04v-.01a1.4 1.4 0 0 1 .08-.18 7.751 7.751 0 0 1 .77-1.34 8.562 8.562 0 0 1 15.56 4.93z"/><path d="m64.093 68.47a1.4 1.4 0 0 0 -.08.18h-.013z"/></g></g></svg>