<svg height="512" viewBox="0 0 128 128" width="512" xmlns="http://www.w3.org/2000/svg"><g id="Circle_Grid" data-name="Circle Grid"><circle cx="64" cy="64" fill="#f6c863" r="64"/></g><g id="icon"><path d="m64 27.043a38.978 38.978 0 1 0 38.975 38.975 38.975 38.975 0 0 0 -38.975-38.975zm0 44.5a5.525 5.525 0 1 1 5.525-5.525 5.525 5.525 0 0 1 -5.525 5.525z" fill="#575b6d"/><g fill="#414451"><path d="m33.739 67.169a1.149 1.149 0 0 1 -1.149-1.149 31.444 31.444 0 0 1 31.41-31.408 1.149 1.149 0 0 1 0 2.3 29.144 29.144 0 0 0 -29.112 29.108 1.149 1.149 0 0 1 -1.149 1.149z"/><path d="m64 97.428a1.149 1.149 0 1 1 0-2.3 29.143 29.143 0 0 0 29.109-29.108 1.149 1.149 0 1 1 2.3 0 31.444 31.444 0 0 1 -31.409 31.408z"/><path d="m41.351 67.134a1.113 1.113 0 0 1 -1.113-1.113 23.788 23.788 0 0 1 23.762-23.761 1.113 1.113 0 0 1 0 2.227 21.558 21.558 0 0 0 -21.536 21.533 1.113 1.113 0 0 1 -1.113 1.114z"/><path d="m64 89.781a1.113 1.113 0 1 1 0-2.227 21.558 21.558 0 0 0 21.532-21.534 1.113 1.113 0 1 1 2.227 0 23.787 23.787 0 0 1 -23.759 23.761z"/></g><path d="m64 53.071a12.947 12.947 0 1 0 12.947 12.947 12.96 12.96 0 0 0 -12.947-12.947zm0 18.472a5.525 5.525 0 1 1 5.525-5.525 5.525 5.525 0 0 1 -5.525 5.525z" fill="#9a9eaf"/><path d="m100.124 29.465c0 5.663-5.359 12.677-12.4 16.76a30.327 30.327 0 0 1 -2.917-1.96c-5.389-4.09-9.493-9.931-9.493-14.8a6.465 6.465 0 0 1 6.47-6.465 6.348 6.348 0 0 1 1.648.215 6.062 6.062 0 0 1 1.781.772 6.506 6.506 0 0 1 2.516 2.913 6.444 6.444 0 0 1 5.931-3.9 6.682 6.682 0 0 1 1.648.208 6.476 6.476 0 0 1 4.816 6.257z" fill="#da364c"/><path d="m85.213 23.987a6.506 6.506 0 0 1 2.516 2.913 6.444 6.444 0 0 1 5.931-3.9 6.682 6.682 0 0 1 1.648.208 6.478 6.478 0 0 1 1.722 4.4c0 5.611-5.27 12.559-12.217 16.656-5.389-4.09-9.493-9.931-9.493-14.8a6.465 6.465 0 0 1 6.464-6.464 6.348 6.348 0 0 1 1.648.215" fill="#ef5261"/><path d="m42.746 85.455c0 4.046-3.828 9.057-8.855 11.973a21.666 21.666 0 0 1 -2.084-1.4c-3.85-2.922-6.782-7.095-6.782-10.573a4.619 4.619 0 0 1 4.618-4.618 4.535 4.535 0 0 1 1.177.154 4.33 4.33 0 0 1 1.273.551 4.648 4.648 0 0 1 1.8 2.084 4.6 4.6 0 0 1 4.237-2.789 4.773 4.773 0 0 1 1.177.148 4.626 4.626 0 0 1 3.439 4.47z" fill="#da364c"/><path d="m32.094 81.542a4.648 4.648 0 0 1 1.8 2.084 4.6 4.6 0 0 1 4.237-2.789 4.773 4.773 0 0 1 1.177.148 4.628 4.628 0 0 1 1.23 3.144c0 4.009-3.765 8.972-8.728 11.9-3.85-2.922-6.782-7.095-6.782-10.573a4.619 4.619 0 0 1 4.618-4.618 4.535 4.535 0 0 1 1.177.154" fill="#ef5261"/></g></svg>