<svg height="512" viewBox="0 0 128 128" width="512" xmlns="http://www.w3.org/2000/svg"><g id="Circle_Grid" data-name="Circle Grid"><circle cx="64" cy="64" fill="#ea8953" r="64"/></g><g id="icon"><path d="m23 41.372h82v45.257h-82z" fill="#eeefee"/><g fill="#dbd8dd"><path d="m52.144 47.271h25.233v2.091h-25.233z"/><path d="m82.306 47.271h17.111v2.091h-17.111z"/><path d="m52.144 55.113h47.273v2.091h-47.273z"/><path d="m52.144 62.954h14.703v2.091h-14.703z"/><path d="m70.096 62.954h29.322v2.091h-29.322z"/><path d="m28.582 70.796h14.74v2.091h-14.74z"/><path d="m47.579 70.796h51.838v2.091h-51.838z"/><path d="m28.582 78.638h51.259v2.091h-51.259z"/><path d="m83.538 78.638h15.879v2.091h-15.879z"/></g><path d="m46.833 52.521c0 4-3.788 8.956-8.759 11.841-4.763-2.814-8.763-7.805-8.763-11.841a4.569 4.569 0 0 1 8.763-1.81 4.566 4.566 0 0 1 8.759 1.81z" fill="#ef5261"/></g></svg>