<svg height="512" viewBox="0 0 128 128" width="512" xmlns="http://www.w3.org/2000/svg"><g id="Circle_Grid" data-name="Circle Grid"><circle cx="64" cy="64" fill="#f6c863" r="64"/></g><g id="icon"><path d="m96.239 37.949h-64.478a3.253 3.253 0 0 0 -3.251 3.251v44.885h70.98v-44.885a3.247 3.247 0 0 0 -3.251-3.251zm-25.78 45.427a1.623 1.623 0 0 1 -1.626 1.624h-9.666a1.63 1.63 0 0 1 -1.625-1.625v-1.267h12.917z" fill="#575b6d"/><path d="m42.102 33.026h43.796v62.31h-43.796z" fill="#69b0ee" transform="matrix(0 1 -1 0 128.182 .182)"/><path d="m105 82.108v1.943a6 6 0 0 1 -6 6h-70a6 6 0 0 1 -6-6v-1.943h33.682a.854.854 0 0 1 .854.854v.414a1.63 1.63 0 0 0 1.626 1.624h9.666a1.625 1.625 0 0 0 1.625-1.625v-.414a.854.854 0 0 1 .854-.854z" fill="#575b6d"/><path d="m76.252 57.109c0 5.594-5.3 12.525-12.249 16.559-6.661-3.936-12.255-10.916-12.255-16.559a6.39 6.39 0 0 1 12.252-2.531 6.386 6.386 0 0 1 12.249 2.531z" fill="#ef5261"/></g></svg>