<svg height="512" viewBox="0 0 128 128" width="512" xmlns="http://www.w3.org/2000/svg"><g id="Circle_Grid" data-name="Circle Grid"><circle cx="64" cy="64" fill="#3b5059" r="64"/></g><g id="icon"><path d="m71.315 72.72-7.315 15.622-7.316-15.622z" fill="#ef5261"/><path d="m86.946 71.378-5.92 16.202-8.654-14.922z" fill="#2cbfae"/><path d="m102.327 67.242-3.379 16.945-10.945-13.369z" fill="#f6c863"/><path d="m41.053 71.378 5.921 16.202 8.654-14.922z" fill="#2cbfae"/><path d="m25.673 67.242 3.378 16.945 10.946-13.369z" fill="#f6c863"/><path d="m64 73.667a132.207 132.207 0 0 1 -40.319-6.4.976.976 0 1 1 .593-1.86 128.358 128.358 0 0 0 79.454 0 .976.976 0 1 1 .593 1.86 132.224 132.224 0 0 1 -40.321 6.4z" fill="#eeefee"/><path d="m71.315 47.014-7.315 15.622-7.316-15.622z" fill="#f6c863"/><path d="m86.946 45.671-5.92 16.203-8.654-14.922z" fill="#ef5261"/><path d="m102.327 41.536-3.379 16.945-10.945-13.369z" fill="#2cbfae"/><path d="m41.053 45.671 5.921 16.203 8.654-14.922z" fill="#ef5261"/><path d="m25.673 41.536 3.378 16.945 10.946-13.369z" fill="#2cbfae"/><path d="m64 47.961a132.207 132.207 0 0 1 -40.319-6.4.976.976 0 1 1 .593-1.86 128.358 128.358 0 0 0 79.454 0 .976.976 0 1 1 .593 1.86 132.224 132.224 0 0 1 -40.321 6.4z" fill="#eeefee"/></g></svg>