<svg height="512" viewBox="0 0 128 128" width="512" xmlns="http://www.w3.org/2000/svg"><g id="Circle_Grid" data-name="Circle Grid"><circle cx="64" cy="64" fill="#3b5059" r="64"/></g><g id="icon"><path d="m63.813 26.129h.561v2.158h-.561z" fill="#eeefee"/><path d="m65.8 25.08a1.713 1.713 0 1 1 -3.419 0c0-1.012 1.709-4.31 1.709-4.31s1.71 3.297 1.71 4.31z" fill="#f6c863"/><path d="m65.016 25.921a.925.925 0 1 1 -1.845 0 10.159 10.159 0 0 1 .923-2.326 10.159 10.159 0 0 1 .922 2.326z" fill="#ef5261"/><path d="m67.371 27.527v13.592h-6.742v-13.592c0-.442.357-.74.685-.572a5.569 5.569 0 0 0 5.371 0c.328-.168.686.13.686.572z" fill="#ef5261"/><g fill="#da364c"><path d="m67.371 28.541v.815l-6.742 2.65v-.815z"/><path d="m67.371 32.354v.815l-6.742 2.644v-.809z"/><path d="m67.371 36.161v.821l-6.742 2.644v-.815z"/></g><path d="m100.545 66.963v26.86h-73.09v-26.86a3.365 3.365 0 0 1 3.37-3.37h66.35a3.371 3.371 0 0 1 3.37 3.37z" fill="#ce8a46"/><path d="m100.545 66.963v13.68l-1.8 1.17-2.62-.71-3.26-3.41-3.5.04-.79 1.58-3.41 2.71-4.17-2.17-1.58-1.54-4.09-.41-1.04 1.85-2.16 1.89-2.21.38-1.79-1.42-1.26-1.46-1.62-1.16-2-.04-1.62 1.16-1.96 1.42-2.05 1.29-3-1.08-2.66-2.03-2-.6-1.46.25-1.58 1.5-2.46 1.88-2.25.04-1.84-1.63-1.08-1.62-2.33-1.04-2.13.79-2.37 1.58-1.21 1.84-2.12.33-1.67-1.13v-13.93a3.365 3.365 0 0 1 3.37-3.37h66.35a3.371 3.371 0 0 1 3.37 3.37z" fill="#f6b863"/><path d="m100.545 79.523v2.66a4.359 4.359 0 0 1 -2.39.67c-2.17 0-3.28-1.3-4.18-2.35s-1.47-1.65-2.66-1.65-1.76.6-2.66 1.65a4.884 4.884 0 0 1 -8.35 0c-.9-1.05-1.47-1.65-2.65-1.65s-1.76.6-2.66 1.65a4.884 4.884 0 0 1 -8.35 0c-.9-1.05-1.47-1.65-2.66-1.65s-1.75.6-2.65 1.65-2.01 2.35-4.18 2.35-3.28-1.3-4.18-2.35-1.46-1.65-2.65-1.65-1.76.6-2.66 1.65a5.2 5.2 0 0 1 -4.17 2.35c-2.17 0-3.28-1.3-4.18-2.35s-1.46-1.65-2.65-1.65-1.76.6-2.66 1.65a5.219 5.219 0 0 1 -4.18 2.35 4.362 4.362 0 0 1 -2.37-.66v-2.66a2.923 2.923 0 0 0 2.37 1.32c1.19 0 1.76-.59 2.66-1.65a5.245 5.245 0 0 1 4.18-2.35 5.225 5.225 0 0 1 4.17 2.35c.9 1.06 1.47 1.65 2.66 1.65s1.75-.59 2.65-1.65c.9-1.04 2.01-2.35 4.18-2.35a5.225 5.225 0 0 1 4.17 2.35c.9 1.06 1.47 1.65 2.66 1.65s1.76-.59 2.65-1.65c.9-1.04 2.01-2.35 4.18-2.35s3.28 1.31 4.18 2.35c.9 1.06 1.46 1.65 2.65 1.65s1.76-.59 2.66-1.65a4.884 4.884 0 0 1 8.35 0c.9 1.06 1.47 1.65 2.66 1.65s1.75-.59 2.65-1.65c.9-1.04 2.01-2.35 4.18-2.35a5.245 5.245 0 0 1 4.18 2.35c.9 1.06 1.47 1.65 2.66 1.65a2.943 2.943 0 0 0 2.39-1.33z" fill="#eaa14e"/><path d="m100.545 70.986v2.66a4.359 4.359 0 0 1 -2.39.67c-2.17 0-3.28-1.3-4.18-2.35s-1.47-1.65-2.66-1.65-1.76.6-2.66 1.65a4.884 4.884 0 0 1 -8.35 0c-.9-1.05-1.47-1.65-2.65-1.65s-1.76.6-2.66 1.65a4.884 4.884 0 0 1 -8.35 0c-.9-1.05-1.47-1.65-2.66-1.65s-1.75.6-2.65 1.65-2.01 2.35-4.18 2.35-3.28-1.3-4.18-2.35-1.46-1.65-2.65-1.65-1.76.6-2.66 1.65a5.2 5.2 0 0 1 -4.17 2.35c-2.17 0-3.28-1.3-4.18-2.35s-1.46-1.65-2.65-1.65-1.76.6-2.66 1.65a5.219 5.219 0 0 1 -4.18 2.35 4.362 4.362 0 0 1 -2.37-.66v-2.656a2.923 2.923 0 0 0 2.37 1.32c1.19 0 1.76-.59 2.66-1.65a5.245 5.245 0 0 1 4.18-2.35 5.225 5.225 0 0 1 4.17 2.35c.9 1.06 1.47 1.65 2.66 1.65s1.75-.59 2.65-1.65c.9-1.04 2.01-2.35 4.18-2.35a5.225 5.225 0 0 1 4.17 2.35c.9 1.06 1.47 1.65 2.66 1.65s1.76-.59 2.65-1.65c.9-1.04 2.01-2.35 4.18-2.35s3.28 1.31 4.18 2.35c.9 1.06 1.46 1.65 2.65 1.65s1.76-.59 2.66-1.65a4.884 4.884 0 0 1 8.35 0c.9 1.06 1.47 1.65 2.66 1.65s1.75-.59 2.65-1.65c.9-1.04 2.01-2.35 4.18-2.35a5.245 5.245 0 0 1 4.18 2.35c.9 1.06 1.47 1.65 2.66 1.65a2.943 2.943 0 0 0 2.39-1.334z" fill="#eaa14e"/><path d="m91.208 42.6v21h-54.416v-21a2.505 2.505 0 0 1 2.508-2.514h49.4a2.51 2.51 0 0 1 2.508 2.514z" fill="#ce8a46"/><path d="m91.208 42.6v10.18l-1.34.871-1.951-.529-2.427-2.538-2.606.03-.584 1.176-2.539 2.018-3.1-1.616-1.176-1.146-3.045-.305-.774 1.377-1.608 1.407-1.645.283-1.342-1.058-.938-1.087-1.206-.863-1.489-.03-1.206.864-1.459 1.057-1.526.96-2.234-.8-1.98-1.511-1.489-.447-1.087.186-1.177 1.113-1.831 1.4-1.675.03-1.374-1.214-.8-1.208-1.735-.774-1.586.588-1.764 1.176-.9 1.37-1.578.246-1.243-.841v-10.365a2.505 2.505 0 0 1 2.506-2.514h49.4a2.51 2.51 0 0 1 2.508 2.514z" fill="#f6b863"/><path d="m91.208 51.946v1.98a3.245 3.245 0 0 1 -1.779.5 3.9 3.9 0 0 1 -3.112-1.75c-.67-.782-1.094-1.228-1.98-1.228s-1.31.447-1.98 1.228a3.636 3.636 0 0 1 -6.217 0c-.67-.782-1.094-1.228-1.973-1.228s-1.31.447-1.98 1.228a3.636 3.636 0 0 1 -6.217 0c-.67-.782-1.094-1.228-1.98-1.228s-1.3.447-1.973 1.228a3.643 3.643 0 0 1 -6.224 0c-.67-.782-1.087-1.228-1.973-1.228s-1.31.447-1.98 1.228a3.636 3.636 0 0 1 -6.217 0c-.67-.782-1.087-1.228-1.973-1.228s-1.31.447-1.98 1.228a3.886 3.886 0 0 1 -3.112 1.75 3.248 3.248 0 0 1 -1.764-.491v-1.98a2.176 2.176 0 0 0 1.764.983c.886 0 1.31-.439 1.98-1.228a3.636 3.636 0 0 1 6.217 0c.67.789 1.094 1.228 1.98 1.228s1.3-.439 1.973-1.228a3.636 3.636 0 0 1 6.217 0c.67.789 1.094 1.228 1.98 1.228s1.31-.439 1.973-1.228a3.643 3.643 0 0 1 6.224 0c.67.789 1.087 1.228 1.973 1.228s1.31-.439 1.98-1.228a3.636 3.636 0 0 1 6.217 0c.67.789 1.094 1.228 1.98 1.228s1.3-.439 1.973-1.228a3.643 3.643 0 0 1 6.224 0c.67.789 1.094 1.228 1.98 1.228a2.191 2.191 0 0 0 1.779-.992z" fill="#eaa14e"/><path d="m91.208 45.591v1.98a3.245 3.245 0 0 1 -1.779.5 3.9 3.9 0 0 1 -3.112-1.75c-.67-.782-1.094-1.228-1.98-1.228s-1.31.447-1.98 1.228a3.636 3.636 0 0 1 -6.217 0c-.67-.782-1.094-1.228-1.973-1.228s-1.31.447-1.98 1.228a3.636 3.636 0 0 1 -6.217 0c-.67-.782-1.094-1.228-1.98-1.228s-1.3.447-1.973 1.228a3.643 3.643 0 0 1 -6.224 0c-.67-.782-1.087-1.228-1.973-1.228s-1.31.447-1.98 1.228a3.636 3.636 0 0 1 -6.217 0c-.67-.782-1.087-1.228-1.973-1.228s-1.31.447-1.98 1.228a3.886 3.886 0 0 1 -3.112 1.75 3.248 3.248 0 0 1 -1.764-.491v-1.98a2.176 2.176 0 0 0 1.764.983c.886 0 1.31-.439 1.98-1.228a3.636 3.636 0 0 1 6.217 0c.67.789 1.094 1.228 1.98 1.228s1.3-.439 1.973-1.228a3.636 3.636 0 0 1 6.217 0c.67.789 1.094 1.228 1.98 1.228s1.31-.439 1.973-1.228a3.643 3.643 0 0 1 6.224 0c.67.789 1.087 1.228 1.973 1.228s1.31-.439 1.98-1.228a3.636 3.636 0 0 1 6.217 0c.67.789 1.094 1.228 1.98 1.228s1.3-.439 1.973-1.228a3.643 3.643 0 0 1 6.224 0c.67.789 1.094 1.228 1.98 1.228a2.191 2.191 0 0 0 1.779-.992z" fill="#eaa14e"/><rect fill="#f6b863" height="5.474" rx=".939" width="82" x="23" y="91.009"/></g></svg>