<svg height="512" viewBox="0 0 128 128" width="512" xmlns="http://www.w3.org/2000/svg"><g id="Circle_Grid" data-name="Circle Grid"><circle cx="64" cy="64" fill="#3b5059" r="64"/></g><g id="icon"><path d="m91.21 72.167-5.984 28.142c0 1.132-1.436 2.057-3.785 2.782a29.322 29.322 0 0 1 -3.2.763c-1.6.3-3.4.537-5.318.718-1.016.1-2.07.175-3.144.239-1.52.091-3.08.149-4.658.168-1.041.026-2.09.026-3.131.006-1.74-.013-3.468-.071-5.143-.175-1.074-.065-2.128-.142-3.144-.239-1.921-.181-3.72-.421-5.318-.718a29.322 29.322 0 0 1 -3.2-.763c-2.348-.725-3.785-1.65-3.785-2.782l-5.988-28.141z" fill="#eaa14e"/><path d="m65.119 72.7v32.28c-1.041.026-2.09.026-3.131.006v-32.286z" fill="#d38d48"/><path d="m74.661 72.7-1.74 31.868c-1.016.1-2.07.175-3.144.239l1.753-32.107z" fill="#d38d48"/><path d="m84.2 72.7-2.762 30.387a29.322 29.322 0 0 1 -3.2.763l2.834-31.15z" fill="#d38d48"/><path d="m56.845 104.811c-1.074-.065-2.128-.142-3.144-.239l-1.741-31.872h3.131z" fill="#d38d48"/><path d="m48.383 103.854a29.322 29.322 0 0 1 -3.2-.763l-2.765-30.391h3.131z" fill="#d38d48"/><path d="m73.419 23s2.022 7.844-12.7 10.594-27.733 12.777-19.485 18.518c0 0-7.6 1.375-7.035 8.814 0 0-7.626 4.368-4.519 12.782a5.156 5.156 0 0 0 3.233 3.117c2.744.895 7.674 1.475 13.087-2.717.012.018 7.692 11.475 19.408 1.86 0 .007 3.564 7.846 16.173 3.843 3.3-1.047 4.591-2.7 4.7-4.571 0 0 3.954 3.963 9.21-.727s3.154-8.734 3.154-8.734-2.426-5.658-8.41-5.579c0 0 5.5-3.8-.323-13.425a7.46 7.46 0 0 0 -8.208-3.787s1.496-9.314-8.285-19.988z" fill="#eeefee"/><g fill="#ef5261"><rect height="1.331" rx=".666" transform="matrix(.707 -.707 .707 .707 -11.618 67.75)" width="3.696" x="74.124" y="47.233"/><rect height="3.696" rx=".666" transform="matrix(.932 -.361 .361 .932 -14.999 28.413)" width="1.331" x="67.809" y="52.466"/><rect height="3.696" rx=".666" transform="matrix(.707 -.707 .707 .707 -19.788 71.292)" width="1.331" x="75.497" y="57.684"/><rect height="1.331" rx=".666" width="3.696" x="59.238" y="65.499"/><rect height="1.331" rx=".666" transform="matrix(.707 -.707 .707 .707 -23.548 75.338)" width="3.696" x="77.318" y="65.429"/><rect height="3.696" rx=".666" transform="matrix(.707 -.707 .707 .707 -19.795 83.207)" width="1.331" x="89.876" y="63.651"/><rect height="1.331" rx=".666" width="3.696" x="51.96" y="57.53"/><rect height="1.331" rx=".666" width="3.696" x="37.347" y="66.164"/><rect height="1.331" rx=".666" width="3.696" x="47.189" y="49.982"/><rect height="1.331" rx=".666" width="3.696" x="58.291" y="36.762"/><rect height="3.696" rx=".666" transform="matrix(.732 -.681 .681 .732 -8.721 60.332)" width="1.331" x="71.724" y="39.411"/></g><circle cx="59.793" cy="49.146" fill="#575b6d" r="1.502"/><circle cx="51.96" cy="70.665" fill="#69b0ee" r="1.502"/><circle cx="73.86" cy="34.78" fill="#69b0ee" r="1.502"/><circle cx="70.717" cy="63.091" fill="#575b6d" r="1.502"/><circle cx="85.705" cy="69.163" fill="#575b6d" r="1.502"/><circle cx="72.969" cy="73.669" fill="#575b6d" r="1.502"/><circle cx="47.536" cy="42.791" fill="#2cbfae" r="1.502"/><circle cx="83.319" cy="52.815" fill="#2cbfae" r="1.502"/><circle cx="43.92" cy="59.532" fill="#575b6d" r="1.502"/></g></svg>