<svg height="512" viewBox="0 0 128 128" width="512" xmlns="http://www.w3.org/2000/svg"><g id="Circle_Grid" data-name="Circle Grid"><circle cx="64" cy="64" fill="#2cbfae" r="64"/></g><g id="icon"><path d="m62.184 63.44h3.631v37.188h-3.631z" fill="#eeefee"/><path d="m48.475 97.088h31.05a5.81 5.81 0 0 1 5.81 5.81v.534a0 0 0 0 1 0 0h-42.669a0 0 0 0 1 0 0v-.532a5.81 5.81 0 0 1 5.809-5.812z" fill="#575b6d"/><path d="m83.093 77.238h-38.186a12 12 0 0 1 -11.982-11.982v-1.816h3.631v1.816a8.361 8.361 0 0 0 8.351 8.351h38.186a8.361 8.361 0 0 0 8.351-8.351v-1.816h3.631v1.816a12 12 0 0 1 -11.982 11.982z" fill="#eeefee"/><path d="m92.919 34.192h1.024v3.145h-1.024z" fill="#eeefee"/><path d="m96.549 31.9a3.119 3.119 0 0 1 -6.237 0c0-1.723 3.119-7.333 3.119-7.333s3.118 5.612 3.118 7.333z" fill="#f6c863"/><path d="m95.113 33.333a1.683 1.683 0 0 1 -3.366 0c0-.93 1.683-3.957 1.683-3.957s1.683 3.024 1.683 3.957z" fill="#ef5261"/><path d="m99.415 36.229v25.638h-12.315v-25.638a.9.9 0 0 1 1.251-.834 12.455 12.455 0 0 0 9.809 0 .9.9 0 0 1 1.255.834z" fill="#f6b863"/><path d="m81.52 59.87h23.48a0 0 0 0 1 0 0 4.96 4.96 0 0 1 -4.96 4.96h-13.561a4.96 4.96 0 0 1 -4.96-4.96 0 0 0 0 1 .001 0z" fill="#575b6d"/><g fill="#eaa14e"><path d="m99.415 37.707v1.187l-12.312 3.862v-1.187z"/><path d="m99.415 43.264v1.188l-12.312 3.853v-1.179z"/><path d="m99.415 48.812v1.197l-12.312 3.853v-1.188z"/><path d="m99.415 54.37v1.187l-12.312 3.853v-1.178z"/></g><path d="m63.659 34.192h1.024v3.145h-1.024z" fill="#eeefee"/><path d="m67.289 31.9a3.119 3.119 0 0 1 -6.237 0c0-1.723 3.119-7.333 3.119-7.333s3.118 5.612 3.118 7.333z" fill="#f6c863"/><path d="m65.854 33.333a1.683 1.683 0 0 1 -3.366 0c0-.93 1.683-3.957 1.683-3.957s1.683 3.024 1.683 3.957z" fill="#ef5261"/><path d="m70.155 36.229v25.638h-12.311v-25.638a.9.9 0 0 1 1.251-.834 12.455 12.455 0 0 0 9.809 0 .9.9 0 0 1 1.251.834z" fill="#f6b863"/><path d="m52.26 59.87h23.48a0 0 0 0 1 0 0 4.96 4.96 0 0 1 -4.96 4.96h-13.56a4.96 4.96 0 0 1 -4.96-4.96 0 0 0 0 1 0 0z" fill="#575b6d"/><path d="m70.155 37.707v1.187l-12.311 3.862v-1.187z" fill="#eaa14e"/><path d="m70.155 43.264v1.188l-12.311 3.853v-1.179z" fill="#eaa14e"/><path d="m70.155 48.812v1.197l-12.311 3.853v-1.188z" fill="#eaa14e"/><path d="m70.155 54.37v1.187l-12.311 3.853v-1.178z" fill="#eaa14e"/><path d="m34.399 34.192h1.024v3.145h-1.024z" fill="#eeefee"/><path d="m38.03 31.9a3.119 3.119 0 0 1 -6.237 0c0-1.723 3.119-7.333 3.119-7.333s3.118 5.612 3.118 7.333z" fill="#f6c863"/><path d="m36.594 33.333a1.683 1.683 0 0 1 -3.366 0c0-.93 1.683-3.957 1.683-3.957s1.683 3.024 1.683 3.957z" fill="#ef5261"/><path d="m40.9 36.229v25.638h-12.316v-25.638a.9.9 0 0 1 1.251-.834 12.455 12.455 0 0 0 9.809 0 .9.9 0 0 1 1.256.834z" fill="#f6b863"/><path d="m23 59.87h23.48a0 0 0 0 1 0 0 4.96 4.96 0 0 1 -4.96 4.96h-13.56a4.96 4.96 0 0 1 -4.96-4.958 0 0 0 0 1 0-.002z" fill="#575b6d"/><path d="m40.895 37.707v1.187l-12.311 3.862v-1.187z" fill="#eaa14e"/><path d="m40.895 43.264v1.188l-12.311 3.853v-1.179z" fill="#eaa14e"/><path d="m40.895 48.812v1.197l-12.311 3.853v-1.188z" fill="#eaa14e"/><path d="m40.895 54.37v1.187l-12.311 3.853v-1.178z" fill="#eaa14e"/></g></svg>