<svg height="512" viewBox="0 0 128 128" width="512" xmlns="http://www.w3.org/2000/svg"><g id="Circle_Grid" data-name="Circle Grid"><circle cx="64" cy="64" fill="#ea8953" r="64"/></g><g id="icon"><rect fill="#414451" height="82" rx="4.427" width="48.126" x="39.937" y="23"/><path d="m42.071 30.903h43.858v62.136h-43.858z" fill="#69b0ee"/><path d="m67.7 26.194h-7.4a.765.765 0 1 0 0 1.531h7.4a.765.765 0 0 0 0-1.531z" fill="#62667c"/><circle cx="64" cy="99.086" fill="#62667c" r="2.923"/><path d="m76.862 58.659c0 4.226-2.87 9.167-7.2 13.194a31.561 31.561 0 0 1 -5.656 4.195c-.631-.368-1.251-.767-1.85-1.178-6.15-4.247-11.017-10.818-11.017-16.211a6.7 6.7 0 0 1 4.846-6.444 6.8 6.8 0 0 1 1.861-.263 6.635 6.635 0 0 1 4.026 1.356c.095.189.179.273.252.21a6.686 6.686 0 0 1 1.661 2.04c.074.147.147.284.221.441v-.011c.021-.042.042-.095.063-.137a5.831 5.831 0 0 1 .61-1.051 6.6 6.6 0 0 1 3.616-2.576 6.372 6.372 0 0 1 1.861-.273 6.705 6.705 0 0 1 6.706 6.708z" fill="#ef5261"/></g></svg>