<svg height="512" viewBox="0 0 128 128" width="512" xmlns="http://www.w3.org/2000/svg"><g id="Circle_Grid" data-name="Circle Grid"><circle cx="64" cy="64" fill="#2cbfae" r="64"/></g><g id="icon"><path d="m46.994 91.417h33.729v2.326h-33.729z" fill="#eeefee"/><path d="m77.56 71.436h2.327v30.782h-2.327z" fill="#eeefee" transform="matrix(.945 -.328 .328 .945 -24.139 30.651)"/><circle cx="72.752" cy="70.999" fill="#575b6d" r="4.486"/><path d="m33.887 85.664h30.782v2.327h-30.782z" fill="#eeefee" transform="matrix(.328 -.945 .945 .328 -48.914 104.874)"/><circle cx="55.249" cy="70.999" fill="#575b6d" r="4.486"/><path d="m89.488 46.892v.785a25.483 25.483 0 0 1 -25.481 25.482 25.631 25.631 0 0 1 -18.03-7.465 25.412 25.412 0 0 1 -7.465-18.016v-.785z" fill="#dbd8dd"/><path d="m82.223 46.892v.785a25.475 25.475 0 0 1 -21.849 25.215 25.47 25.47 0 0 1 -21.862-25.215v-.785z" fill="#eeefee"/><circle cx="83.569" cy="100.99" fill="#575b6d" r="4.01"/><circle cx="83.569" cy="100.99" fill="#bbbbcd" r="1.5"/><circle cx="44.243" cy="100.99" fill="#575b6d" r="4.01"/><circle cx="44.243" cy="100.99" fill="#bbbbcd" r="1.5"/><g fill="#eeefee"><path d="m67.191 41.565a1.154 1.154 0 0 1 -.66-.187c-.315-.226-.275-.567.09-.763 1.909-1.022 4.2-2.621 4.25-4.436.036-1.187-.917-2.35-2.832-3.455-3-1.729-4.4-3.514-4.175-5.3.333-2.645 4.12-4.26 4.281-4.328a1.239 1.239 0 0 1 1.211.145c.269.247.165.583-.233.75-.043.018-3.262 1.406-3.521 3.524-.176 1.443 1.044 2.93 3.625 4.421 2.293 1.324 3.432 2.759 3.387 4.267-.066 2.213-2.677 4.068-4.854 5.234a1.226 1.226 0 0 1 -.569.128z"/><path d="m75.648 41.565a1.154 1.154 0 0 1 -.66-.187c-.315-.226-.275-.567.09-.763 1.909-1.022 4.2-2.621 4.25-4.436.036-1.187-.917-2.35-2.832-3.455-3-1.729-4.4-3.514-4.175-5.3.333-2.645 4.12-4.26 4.281-4.328a1.239 1.239 0 0 1 1.211.145c.269.247.165.583-.233.75-.043.018-3.262 1.406-3.521 3.524-.176 1.443 1.044 2.93 3.625 4.421 2.293 1.324 3.432 2.759 3.387 4.267-.066 2.213-2.677 4.068-4.854 5.234a1.226 1.226 0 0 1 -.569.128z"/><path d="m58.734 41.565a1.154 1.154 0 0 1 -.66-.187c-.315-.226-.275-.567.09-.763 1.909-1.022 4.2-2.622 4.25-4.436.036-1.187-.917-2.35-2.832-3.455-3-1.729-4.4-3.514-4.175-5.3.332-2.645 4.12-4.26 4.281-4.328a1.238 1.238 0 0 1 1.211.145c.269.247.165.583-.233.75-.043.018-3.261 1.406-3.52 3.524-.177 1.442 1.043 2.93 3.625 4.42 2.293 1.324 3.432 2.759 3.387 4.267-.067 2.213-2.677 4.068-4.854 5.234a1.226 1.226 0 0 1 -.57.129z"/><path d="m50.278 41.565a1.154 1.154 0 0 1 -.66-.187c-.315-.226-.275-.567.09-.763 1.909-1.022 4.2-2.621 4.25-4.436.036-1.187-.917-2.35-2.832-3.455-3-1.729-4.4-3.514-4.175-5.3.333-2.645 4.12-4.26 4.281-4.328a1.239 1.239 0 0 1 1.211.145c.269.247.165.583-.233.75-.043.018-3.262 1.406-3.521 3.524-.176 1.443 1.044 2.93 3.625 4.421 2.293 1.324 3.432 2.759 3.387 4.267-.066 2.213-2.677 4.068-4.854 5.234a1.226 1.226 0 0 1 -.569.128z"/></g><rect fill="#575b6d" height="4.557" rx="2.278" width="57.5" x="35.25" y="43.5"/></g></svg>