<?xml version="1.0"?>
<svg xmlns="http://www.w3.org/2000/svg" viewBox="0 0 128 128" width="512" height="512"><g id="Circle_Grid" data-name="Circle Grid"><circle cx="64" cy="64" r="64" fill="#69b0ee"/></g><g id="icon"><path d="M65.511,69.474h0a1.356,1.356,0,0,1,1.356,1.356v4.814a0,0,0,0,1,0,0H64.155a0,0,0,0,1,0,0V70.83A1.356,1.356,0,0,1,65.511,69.474Z" fill="#575b6d"/><path d="M48.086,73.983H83.58a4.068,4.068,0,0,1,4.068,4.068V79.78a0,0,0,0,1,0,0H44.017a0,0,0,0,1,0,0V78.051A4.068,4.068,0,0,1,48.086,73.983Z" fill="#dbd8dd"/><path d="M89.072,71.034a5.675,5.675,0,0,0-.712-1.082c-1.749-2.176-5.508-4.564-9.792-6.8a42.619,42.619,0,0,0-37.231-1.021l-2.758,1.245A11.34,11.34,0,0,0,31.911,74.3l.484,8.535a4.677,4.677,0,0,0,4.67,4.434h2.579v4.507H36.614A8.345,8.345,0,0,1,28.416,85l-.793-4.154a32.888,32.888,0,0,1-.529-8.885c.61-7.485,3.58-12.4,10.069-15.406l6.615-3.067q1.867-.867,3.783-1.615l3.8-1.485A45.44,45.44,0,0,0,76.493,26.341c.748-1.709,1.086-2.77,1.086-2.77l.883,3.649L88.933,70.456Z" fill="#f6c863"/><path d="M89.072,71.034a5.675,5.675,0,0,0-.712-1.082c-1.749-2.176-5.508-4.564-9.792-6.8a42.619,42.619,0,0,0-37.231-1.021l-2.758,1.245A11.34,11.34,0,0,0,31.911,74.3l.484,8.535a4.677,4.677,0,0,0,4.67,4.434h2.579v4.507H36.614A8.345,8.345,0,0,1,28.416,85l-.793-4.154a32.888,32.888,0,0,1-.529-8.885c.61-7.485,3.58-12.4,10.069-15.406l6.615-3.067q1.867-.867,3.783-1.615l3.8-1.485A45.44,45.44,0,0,0,76.493,26.341c.748-1.709,1.086-2.77,1.086-2.77l.883,3.649L88.933,70.456Z" fill="#eeefee" opacity="0.3"/><path d="M90.715,72.677a8.147,8.147,0,0,0-1.782-2.221c-.179-.167-.37-.338-.574-.5-1.749-2.176-5.508-4.564-9.792-6.8a42.619,42.619,0,0,0-37.231-1.021l-2.758,1.245A11.34,11.34,0,0,0,31.911,74.3l.484,8.535a4.676,4.676,0,0,0,2.29,3.783,4.675,4.675,0,0,0,4.027,2.294h.932v2.864H36.614A8.349,8.349,0,0,1,31.6,90.109a8.266,8.266,0,0,1-1.542-3.462l-.793-4.15a33.093,33.093,0,0,1-.529-8.889c.61-7.481,3.58-12.4,10.069-15.406l6.615-3.067q1.867-.866,3.787-1.615L53,52.04A45.461,45.461,0,0,0,78.137,27.985c.118-.273.228-.529.325-.765.521-1.253.761-2,.761-2Z" fill="#f6c863"/><path d="M93.75,80.9V98.493H37.915V80.9a2.136,2.136,0,0,1,2.136-2.136H91.614A2.136,2.136,0,0,1,93.75,80.9Z" fill="#dbd8dd"/><path d="M90.394,80.9V98.493H37.915V80.9a2.136,2.136,0,0,1,2.136-2.136H88.258A2.136,2.136,0,0,1,90.394,80.9Z" fill="#eeefee"/><path d="M99.006,99.807a2.194,2.194,0,0,1-2.2,2.193H35.434a2.195,2.195,0,1,1,0-4.39H96.809A2.2,2.2,0,0,1,99.006,99.807Z" fill="#575b6d"/><path d="M95.548,99.807a2.194,2.194,0,0,1-2.2,2.193H35.434a2.195,2.195,0,1,1,0-4.39H93.351A2.2,2.2,0,0,1,95.548,99.807Z" fill="#62667c"/><path d="M78.392,20.117l-.028.008A2.853,2.853,0,0,0,76.4,23.541L87.888,70.4a2.853,2.853,0,0,0,4.124,1.831h0a2.853,2.853,0,0,0,1.417-3.188L81.967,22.176A2.853,2.853,0,0,0,78.392,20.117Z" fill="#eab54e"/><path d="M72.241,85.968c0,2.926-2.77,6.551-6.407,8.661-3.484-2.058-6.41-5.709-6.41-8.661a3.342,3.342,0,0,1,6.41-1.324,3.34,3.34,0,0,1,6.407,1.324Z" fill="#ef5261"/></g></svg>
